<svg xmlns="http://www.w3.org/2000/svg" width="189" height="33" viewBox="0 0 189 33">
  <g id="Group_24" data-name="Group 24" transform="translate(-208 -43)">
    <text id="PAUL_GARCIA" data-name="PAUL GARCIA" transform="translate(251 67)" fill="#3d444d" font-size="22" font-family="OpenSans-Bold, Open Sans" font-weight="700"><tspan x="0" y="0">PAUL GARCIA</tspan></text>
    <path id="Subtraction_1" data-name="Subtraction 1" d="M-1412.566,67.414h-4.4a1.881,1.881,0,0,1-.386-1.075,2.955,2.955,0,0,1,.456-1.567,8.456,8.456,0,0,1,1.183-1.526l9.9-10.25a12.228,12.228,0,0,1,1.363-1.22,2.924,2.924,0,0,1,1.468-.617,1.394,1.394,0,0,1,.146-.008,2.085,2.085,0,0,1,1.411.693,2.023,2.023,0,0,1,.751,1.438,2.527,2.527,0,0,1-.5,1.393,11.731,11.731,0,0,1-1.172,1.4l-1.742,1.8,4.783,4.619,1.373-1.421c.184-.19.362-.384.531-.576v6.907H-1404l1.76-1.823-6.4-6.177-2.772,2.87,2,1.927-2.507,2.6a8.7,8.7,0,0,1-.646.6Zm-10.458,0h-7.382V51.434l4.512-4.672,1.968,1.9a13.367,13.367,0,0,0,3.755,2.622,6.049,6.049,0,0,0,2.5.547,6.645,6.645,0,0,0,1.6-.2,10.39,10.39,0,0,0,4.635-3.1,12.089,12.089,0,0,0,2.737-4.092,6.408,6.408,0,0,0,.2-4.035,8.973,8.973,0,0,0-2.554-3.919l-2.139-2.065h15.784v14.7c-.228-.248-.481-.507-.753-.769a10.159,10.159,0,0,0-4.888-2.9,7.1,7.1,0,0,0-1.374-.137,7.208,7.208,0,0,0-3.264.809,17.274,17.274,0,0,0-4.534,3.492l-7.18,7.435a18.2,18.2,0,0,0-3.307,4.546,7.211,7.211,0,0,0-.715,4.514,6.054,6.054,0,0,0,.4,1.3Zm4.051-21.469a1.972,1.972,0,0,1-.3-.023,3.306,3.306,0,0,1-1.683-.992l-1.641-1.584,5.675-5.877,1.613,1.557a3.15,3.15,0,0,1,1.079,1.782,2.359,2.359,0,0,1-.4,1.592,11.227,11.227,0,0,1-1.316,1.609,10.692,10.692,0,0,1-1.761,1.522A2.311,2.311,0,0,1-1418.973,45.945Zm-11.433-4.3V34.414h6.98l-6.979,7.227Z" transform="translate(1638.406 8.586)" fill="#3d444d"/>
  </g>
</svg>
